# xmcd CD database file
#
# Track frame offsets:
#	150
#	11740
#	22987
#	32617
#	45527
#	58445
#	69515
#	81352
#	92965
#	104432
#	115272
#	137210
#	168445
#	183062
#	204912
#
# Disc length: 2929 seconds
#
# Revision: 1
# Processed by: cddbd v1.5.1PL0 Copyright (c) Steve Scherf et al.
# Submitted via: CDex 1.51
#
DISCID=ca0b6f0f
DTITLE=Willie Mabon - The best of Willie Mabon - I don't know
DYEAR=1995
DGENRE=Blues
TTITLE0=I got to have some
TTITLE1=Mean mistreater
TTITLE2=Why did it happen to me
TTITLE3=Fannie Mae
TTITLE4=Sometime I wonder
TTITLE5=I'm hungry
TTITLE6=Just got some
TTITLE7=Harmonica special
TTITLE8=Too hot to handle
TTITLE9=Somebody's gotta pay
TTITLE10=I don't know
TTITLE11=Shake that thing
TTITLE12=Dorsey's Boogie Woogie
TTITLE13=Little red rooster
TTITLE14=Rockin' Willie
EXTD=YEAR: 1995
EXTT0=
EXTT1=
EXTT2=
EXTT3=
EXTT4=
EXTT5=
EXTT6=
EXTT7=
EXTT8=
EXTT9=
EXTT10=
EXTT11=
EXTT12=
EXTT13=
EXTT14=
PLAYORDER=
